<svg preserveAspectRatio="none" overflow="visible" style="display: block;" width="52" height="52" viewBox="0 0 52 52" fill="none" xmlns="http://www.w3.org/2000/svg">
<g id="Caminho 4089 1" clip-path="url(#clip0_0_230)">
<path id="Caminho 4089" d="M41.6001 0C44.3583 0 47.0036 1.21744 48.9539 3.38451C50.9043 5.55157 52 8.49074 52 11.5554V40.4446C51.9999 43.5092 50.9041 46.4483 48.9538 48.6153C47.0035 50.7824 44.3583 51.9998 41.6001 52H10.3999C7.64167 52 4.99642 50.7826 3.04606 48.6155C1.0957 46.4484 0 43.5093 0 40.4446V11.5554C0 8.49074 1.0957 5.55157 3.04606 3.38451C4.99642 1.21744 7.64167 0 10.3999 0H41.6001ZM10.3999 5.77771C9.02078 5.77771 7.69816 6.38643 6.72298 7.46997C5.7478 8.5535 5.19995 10.0231 5.19995 11.5554V40.4446C5.19995 41.9769 5.7478 43.4465 6.72298 44.53C7.69816 45.6136 9.02078 46.2223 10.3999 46.2223H41.6001C42.9792 46.2223 44.3018 45.6136 45.277 44.53C46.2522 43.4465 46.8001 41.9769 46.8001 40.4446V11.5554C46.8001 10.0231 46.2522 8.5535 45.277 7.46997C44.3018 6.38643 42.9792 5.77771 41.6001 5.77771H10.3999ZM24.4716 12.7091C24.5927 12.3682 24.8033 12.0758 25.076 11.8696C25.3488 11.6635 25.671 11.5533 26.0008 11.5533C26.3306 11.5533 26.6528 11.6635 26.9255 11.8696C27.1983 12.0758 27.4089 12.3682 27.53 12.7091L28.3527 14.9151C29.7321 18.6546 32.351 21.663 35.6688 23.3194L37.9995 24.4702C38.2985 24.6236 38.5516 24.869 38.729 25.1772C38.9064 25.4854 39.0007 25.8436 39.0007 26.2095C39.0007 26.5753 38.9064 26.9335 38.729 27.2418C38.5516 27.55 38.2985 27.7953 37.9995 27.9488L35.529 29.1675C32.2956 30.7796 29.7228 33.6786 28.3173 37.2935L27.5174 39.336C27.3918 39.6683 27.1807 39.952 26.9106 40.1515C26.6405 40.3511 26.3233 40.4575 25.9989 40.4575C25.6746 40.4575 25.3574 40.3511 25.0873 40.1515C24.8172 39.952 24.6061 39.6683 24.4805 39.336L23.6821 37.2935C22.2773 33.6778 19.7046 30.7779 16.471 29.1651L14.0005 27.9482C13.7017 27.7945 13.4488 27.5492 13.2715 27.241C13.0942 26.9328 13.0001 26.5746 13.0001 26.2089C13.0001 25.8431 13.0942 25.485 13.2715 25.1768C13.4488 24.8686 13.7017 24.6232 14.0005 24.4696L16.3312 23.3194C19.6487 21.6633 22.2673 18.655 23.6463 14.9157L24.4716 12.7091Z" fill="#D4DB13"/>
</g>
<defs>
<clipPath id="clip0_0_230">
<rect width="52" height="52" fill="white"/>
</clipPath>
</defs>
</svg>
